<svg height="512" viewBox="0 0 512 512" width="512" xmlns="http://www.w3.org/2000/svg"><g id="Filled_Outline" data-name="Filled Outline"><path d="m440 346.69v149.31h-368v-149.31a64 64 0 0 1 49.34-62.3l74.32-17.49a16 16 0 0 0 12.34-15.57v-19.33h-24a16 16 0 0 1 -16-16v-48h-24s24.5-66.81 25.45-72a88.06 88.06 0 0 1 96.65-71.44c40.12 4.47 72.74 37.02 77.31 77.12a87.527 87.527 0 0 1 -17.63 63.82c-13.5 17.5-21.78 38.44-21.78 60.54v25.29a16 16 0 0 0 12.34 15.57l17.14 4.03 57.18 13.46a64 64 0 0 1 49.34 62.3z" fill="#348fd9"/><path d="m440 346.69v149.31h-368v-41.34c85.95-33.73 185.47-91.71 261.48-183.73l57.18 13.46a64 64 0 0 1 49.34 62.3z" fill="#3086cd"/><path d="m168.88 488h-48.88v-79.953a64 64 0 0 1 15.835-42.147l33.588-38.386a22.012 22.012 0 0 1 16.565-7.514 22.012 22.012 0 0 1 22.012 22.011v106.869a39.12 39.12 0 0 1 -39.12 39.12z" fill="#4db7e5"/><path d="m343.12 488h48.88v-79.953a64 64 0 0 0 -15.835-42.147l-33.588-38.386a22.012 22.012 0 0 0 -16.565-7.514 22.012 22.012 0 0 0 -22.012 22.011v106.869a39.12 39.12 0 0 0 39.12 39.12z" fill="#4db7e5"/><path d="m168 168v32h64a8 8 0 0 1 8 8v136l-32 24v40l48-32 48 32v-40l-32-24v-176a32 32 0 0 0 -32-32h-84.373c-5.977 16.586-11.627 32-11.627 32z" fill="#48add9"/><path d="m256 64a56 56 0 0 1 56 56v16a0 0 0 0 1 0 0h-96a16 16 0 0 1 -16-16 56 56 0 0 1 56-56z" fill="#ffb531"/><path d="m448 496v-149.312a71.724 71.724 0 0 0 -55.509-70.088l-74.323-17.488a7.97 7.97 0 0 1 -6.168-7.785v-25.288c0-19.347 6.955-38.59 20.113-55.648a95.61 95.61 0 0 0 19.246-69.616c-5-43.879-40.484-79.274-84.371-84.163a96.05 96.05 0 0 0 -105.388 77.865c-.691 2.93-6.782 20.177-13.483 38.782 0 .01-.01.019-.013.029-5.159 14.318-10.131 27.914-11.336 31.2-.092.249-.186.507-.276.753a8 8 0 0 0 7.508 10.759h16v40a24.028 24.028 0 0 0 24 24h16v11.327a7.97 7.97 0 0 1 -6.167 7.788l-74.324 17.485a71.724 71.724 0 0 0 -55.509 70.088v149.312h16v-149.312a55.786 55.786 0 0 1 43.173-54.511l74.327-17.488a23.908 23.908 0 0 0 18.5-23.362v-19.327a8 8 0 0 0 -8-8h-24a8.009 8.009 0 0 1 -8-8v-8h56v132l-16 12v-9.988a30.012 30.012 0 0 0 -52.6-19.763l-33.588 38.386a71.985 71.985 0 0 0 -17.812 47.412v79.953a8 8 0 0 0 8 8h48.88a47.173 47.173 0 0 0 47.12-47.12v-36.6l40-26.666 40 26.666v36.6a47.173 47.173 0 0 0 47.12 47.12h48.88a8 8 0 0 0 8-8v-79.953a71.985 71.985 0 0 0 -17.814-47.412l-33.586-38.387a29.934 29.934 0 0 0 -2.09-2.152c-.055-.052-.107-.107-.162-.158-.078-.072-.16-.138-.239-.209a30.005 30.005 0 0 0 -50.109 22.283v9.988l-16-12v-172a39.788 39.788 0 0 0 -8.022-24h40.022a8 8 0 0 0 8-8v-16a64 64 0 0 0 -128 0 23.889 23.889 0 0 0 1.376 8h-26.367c5.327-14.931 9.83-27.94 10.31-30.556a80 80 0 1 1 142.125 63.174c-15.337 19.882-23.444 42.506-23.444 65.421v25.288a23.908 23.908 0 0 0 18.5 23.362l74.323 17.488a55.786 55.786 0 0 1 43.177 54.511v149.312zm-248-47.12a31.155 31.155 0 0 1 -31.12 31.12h-40.88v-71.953a55.988 55.988 0 0 1 13.855-36.876l33.588-38.386a14.012 14.012 0 0 1 24.557 9.227zm112-106.868a14.013 14.013 0 0 1 24.557-9.228l33.587 38.386a55.989 55.989 0 0 1 13.856 36.877v71.953h-40.88a31.155 31.155 0 0 1 -31.12-31.12zm-104-222.012a48 48 0 0 1 96 0v8h-88a8.009 8.009 0 0 1 -8-8zm32 24a24.028 24.028 0 0 1 24 24v176a8 8 0 0 0 3.2 6.4l28.8 21.6v21.052l-35.562-23.708a8 8 0 0 0 -8.876 0l-35.562 23.708v-21.052l28.8-21.6a8 8 0 0 0 3.2-6.4v-136a16.019 16.019 0 0 0 -16-16h-56v-24a8 8 0 0 0 -8-8h-12.556c1.792-4.911 3.784-10.386 5.814-16z"/><path d="m232 88h16v16h-16z"/><path d="m264 96h16v16h-16z"/><path d="m168 368h16v16h-16z"/><path d="m144 400h16v16h-16z"/><path d="m160 440h16v16h-16z"/><path d="m328 368h16v16h-16z"/><path d="m352 416h16v16h-16z"/><path d="m24 112h16v16h-16z"/><path d="m80 152h16v16h-16z"/><path d="m120 184h16v16h-16z"/><path d="m24 200h16v16h-16z"/><path d="m56 240h16v16h-16z"/><path d="m96 216h16v16h-16z"/><path d="m16 288h16v16h-16z"/></g></svg>